<svg width="880" height="209" viewBox="0 0 880 209" fill="none" xmlns="http://www.w3.org/2000/svg">
<path d="M416.367 0C418.184 0 419.637 1.57845 419.637 3.27832V81.8365L416.367 84.9934H379.124L375.855 81.8365V72.0016C375.855 70.1803 377.308 68.7233 379.124 68.7233C380.941 68.7233 382.394 70.1803 382.394 72.0016V78.5582H413.097V55.61H367.439L364.291 52.3317V3.27832C364.291 1.57845 365.744 0 367.439 0C369.256 0 370.709 1.57845 370.709 3.27832V49.0533H413.097V3.27832C413.097 1.57845 414.55 0 416.367 0Z" fill="white"/>
<path d="M351.248 30.3548C352.459 31.6904 352.459 33.7545 351.248 34.9687C349.916 36.3043 347.857 36.3043 346.646 34.9687L322.909 11.1706V81.8365C322.909 83.5364 321.455 84.9934 319.639 84.9934C317.822 85.1148 316.369 83.5364 316.369 81.8365V11.1706L292.51 35.0901C291.299 36.4258 289.24 36.4258 287.908 35.0901C286.697 33.8759 286.697 31.8118 287.908 30.4762L317.338 0.971356H321.94L351.248 30.3548Z" fill="white"/>
<path d="M374.362 41.9092V3.27832C374.362 1.57845 375.815 0 377.511 0C379.328 0 380.781 1.57845 380.781 3.27832V41.9092C380.781 43.6091 379.328 45.1875 377.511 45.1875C375.815 45.1875 374.362 43.6091 374.362 41.9092Z" fill="white"/>
<path d="M471.232 40.9485L475.874 36.2738L470.696 31.0496L465.997 35.7317L471.232 40.9485Z" fill="white"/>
<path d="M480.465 40.9045L475.85 45.5498L479.367 49.0533C480.699 50.389 482.758 50.389 483.969 49.0533C485.301 47.8391 485.301 45.775 483.969 44.4394L480.465 40.9045Z" fill="white"/>
<path d="M461.324 31.076L466.023 26.3357L464.47 24.7695C463.138 23.5553 461.079 23.5553 459.747 24.7695C458.536 26.1051 458.536 28.1693 459.747 29.5049L461.324 31.076Z" fill="white"/>
<path fill-rule="evenodd" clip-rule="evenodd" d="M496.01 20.6413V25.2552L480.465 40.9045L475.874 36.2738L489.106 22.9482L472.757 6.55664H438.241V81.8365C438.241 83.5364 436.788 84.9934 434.971 84.9934C433.276 84.9934 431.822 83.5364 431.822 81.8365V3.27832L434.971 0H474.21L476.511 0.971356L496.01 20.6413ZM471.232 40.9485L462.099 50.1461C460.767 51.3603 460.767 53.4244 462.099 54.76C463.31 55.9742 465.369 55.9742 466.701 54.76L475.85 45.5498L471.232 40.9485ZM476.511 20.5198C477.722 21.8554 477.722 23.9196 476.511 25.2552L470.696 31.0496L466.023 26.3357L471.788 20.5198C473.12 19.3057 475.179 19.3057 476.511 20.5198ZM461.324 31.076L465.997 35.7317L456.892 44.8037C455.56 46.1393 453.501 46.1393 452.29 44.8037C450.957 43.5895 450.957 41.5254 452.29 40.1897L461.324 31.076Z" fill="white"/>
<path d="M551.338 47.7748L546.723 43.1267L541.473 48.39L546.115 53.044L551.338 47.7748Z" fill="white"/>
<path fill-rule="evenodd" clip-rule="evenodd" d="M538.501 30.2334C539.713 29.0192 541.771 29.0192 543.104 30.2334L551.326 38.5113L546.723 43.1267L538.501 34.8473C537.169 33.6331 537.169 31.569 538.501 30.2334ZM551.338 47.7748L565.508 62.0452L549.159 78.4368H514.643V3.27832C514.643 1.45703 513.19 0 511.373 0C509.678 0 508.224 1.45703 508.224 3.27832V81.7151L511.373 84.9934H550.612L552.913 84.0221L572.412 64.3522V59.7382L555.928 43.1443L551.338 47.7748ZM548.19 64.4736L541.488 57.7121L546.115 53.044L552.913 59.8596C554.124 61.0738 554.124 63.138 552.913 64.4736C551.581 65.6878 549.522 65.6878 548.19 64.4736ZM541.473 48.39L536.846 53.0293L528.692 44.8037C527.36 43.5895 527.36 41.5254 528.692 40.1897C529.903 38.8541 531.962 38.8541 533.294 40.1897L541.473 48.39ZM589.73 0C591.426 0 593 1.45703 593 3.27832V81.8365C593 83.5364 591.426 84.9934 589.73 84.9934C587.913 84.9934 586.46 83.5364 586.46 81.8365V3.27832C586.46 1.45703 587.913 0 589.73 0Z" fill="white"/>
<path d="M558.978 40.0683C560.31 38.8541 560.31 36.79 558.978 35.4544C557.766 34.1188 555.708 34.1188 554.375 35.4544L551.326 38.5113L555.928 43.1443L558.978 40.0683Z" fill="white"/>
<path d="M534.756 55.1243C533.545 56.3385 533.545 58.4026 534.756 59.7383C536.088 60.9524 538.147 60.9524 539.479 59.7383L541.488 57.7121L536.846 53.0293L534.756 55.1243Z" fill="white"/>
<path d="M546.115 53.044L541.473 48.39L536.846 53.0293L541.488 57.7121L546.115 53.044Z" fill="white"/>
<path d="M546.723 43.1267L551.338 47.7748L555.928 43.1443L551.326 38.5113L546.723 43.1267Z" fill="white"/>
<path d="M475.874 36.2738L471.232 40.9485L475.85 45.5498L480.465 40.9045L475.874 36.2738Z" fill="white"/>
<path d="M465.997 35.7317L470.696 31.0496L466.023 26.3357L461.324 31.076L465.997 35.7317Z" fill="white"/>
<path d="M276.4 188.995C271.436 193.426 265.51 195.642 258.623 195.642C254.459 195.642 251.483 194.761 249.694 192.999C248.68 192.038 248.173 190.343 248.173 187.914C248.173 184.177 251.016 181.761 256.701 180.667C258.49 180.32 260.638 180.146 263.147 180.146C265.657 180.146 269.087 180.614 273.438 181.548C275.76 178.959 278.522 175.155 281.726 170.137C284.955 165.092 287.505 161.208 289.373 158.485C291.242 155.763 293.364 152.987 295.739 150.157C298.115 147.301 300.597 144.725 303.187 142.43C308.445 137.732 313.65 135.383 318.802 135.383C321.097 135.383 322.752 135.97 323.767 137.145C324.781 138.292 325.288 139.667 325.288 141.269C325.288 142.843 324.554 144.685 323.086 146.794C321.645 148.903 319.963 150.771 318.041 152.399C316.146 154.028 314.264 155.416 312.396 156.563C310.554 157.685 309.099 158.245 308.031 158.245C306.964 158.245 306.043 157.791 305.269 156.884C304.494 155.976 304.107 155.109 304.107 154.281C304.107 153.427 304.214 152.84 304.428 152.52C304.668 152.173 304.908 151.999 305.148 151.999C305.389 151.999 305.535 152.146 305.589 152.439C306.443 152.173 307.804 151.345 309.673 149.957C311.568 148.542 313.29 147.074 314.838 145.553C316.386 144.031 317.16 143.084 317.16 142.71C317.16 142.31 316.92 142.109 316.439 142.109C315.986 142.109 315.358 142.27 314.558 142.59C313.757 142.91 312.689 143.577 311.354 144.592C310.02 145.579 308.578 146.861 307.03 148.436C303.293 152.173 299.129 157.471 294.538 164.331C293.47 165.879 291.962 168.135 290.014 171.098C286.036 177.104 283.194 181.214 281.485 183.43C295.179 187.033 304.962 188.835 310.834 188.835C313.557 188.835 315.465 188.488 316.56 187.794C316.96 187.554 317.227 187.434 317.36 187.434C317.494 187.434 317.561 187.54 317.561 187.754C317.561 187.967 317.44 188.288 317.2 188.715C316.96 189.142 316.359 190.049 315.398 191.438C314.464 192.826 313.77 193.653 313.316 193.92C312.008 194.694 309.78 195.081 306.63 195.081C303.507 195.081 300.517 194.854 297.661 194.4C294.832 193.947 292.549 193.506 290.814 193.079C289.079 192.625 286.504 191.905 283.087 190.917C279.697 189.929 277.468 189.289 276.4 188.995ZM261.786 186.553C258.289 186.553 256.541 186.966 256.541 187.794C256.541 188.114 256.835 188.395 257.422 188.635C258.036 188.875 258.757 188.995 259.584 188.995C262.173 188.995 264.669 188.314 267.071 186.953C265.016 186.686 263.254 186.553 261.786 186.553ZM342.945 163.49C343.746 163.49 344.56 163.851 345.388 164.571C346.242 165.292 346.669 166.4 346.669 167.895C346.669 169.363 346.148 171.285 345.107 173.66C344.066 176.009 342.638 178.411 340.823 180.867C339.008 183.296 337.006 185.592 334.817 187.754C332.655 189.889 330.306 191.651 327.771 193.039C325.261 194.4 322.979 195.081 320.924 195.081C318.868 195.081 317.214 194.44 315.959 193.159C314.731 191.851 314.117 190.049 314.117 187.754C314.117 185.432 314.678 182.869 315.799 180.066C316.947 177.264 318.415 174.795 320.203 172.659C321.992 170.497 323.927 168.562 326.009 166.854C330.36 163.357 334.177 161.608 337.46 161.608C338.928 161.608 340.036 161.969 340.783 162.689C341.05 162.93 341.184 163.143 341.184 163.33V163.57C341.557 163.517 342.145 163.49 342.945 163.49ZM338.901 168.815H338.621C337.687 168.815 337.22 168.135 337.22 166.773C335.271 167.414 333.229 168.535 331.094 170.137C328.958 171.738 327.05 173.633 325.368 175.822C321.951 180.2 320.216 183.897 320.163 186.913C320.163 188.408 320.71 189.155 321.805 189.155C322.899 189.155 324.527 188.435 326.689 186.993C328.852 185.552 330.987 183.496 333.096 180.827C335.231 178.158 336.819 175.849 337.86 173.9C338.928 171.925 339.462 170.59 339.462 169.896C339.462 169.176 339.275 168.815 338.901 168.815ZM379.181 163.17C379.181 165.012 378.153 167.708 376.098 171.258C374.042 174.781 371.4 178.358 368.17 181.988C364.967 185.618 361.563 188.768 357.96 191.438C354.356 194.08 351.54 195.401 349.512 195.401C348.417 195.401 347.416 195.001 346.509 194.2C345.601 193.399 345.147 192.132 345.147 190.396C345.147 188.635 345.975 185.872 347.63 182.108C349.285 178.345 350.913 175.168 352.515 172.579C351.1 173.62 350.232 174.141 349.912 174.141C349.618 174.141 349.231 173.794 348.751 173.1C348.297 172.406 348.07 171.872 348.07 171.498C348.07 171.098 348.137 170.804 348.271 170.617C353.529 164.771 357.239 161.849 359.401 161.849C360.309 161.849 361.07 162.116 361.684 162.649C362.298 163.183 362.604 163.824 362.604 164.571C362.604 165.319 361.697 167.467 359.882 171.018C358.067 174.568 356.252 178.158 354.437 181.788C352.621 185.392 351.714 187.66 351.714 188.595C351.714 188.755 351.794 188.835 351.954 188.835C352.648 188.835 354.517 187.46 357.56 184.711C360.629 181.935 363.112 179.359 365.007 176.983C366.902 174.608 368.557 172.219 369.972 169.816C371.413 167.414 372.134 165.839 372.134 165.092C372.134 164.344 371.974 163.73 371.653 163.25C371.36 162.743 371.213 162.209 371.213 161.648C371.213 161.061 371.6 160.421 372.374 159.727C373.175 159.006 374.189 158.646 375.417 158.646C377.926 158.646 379.181 160.154 379.181 163.17ZM401.723 150.037C401.723 151.559 401.015 153.093 399.601 154.642C398.186 156.163 396.704 156.924 395.156 156.924C393.635 156.924 392.874 156.123 392.874 154.521C392.874 152.92 393.541 151.398 394.876 149.957C396.237 148.489 397.732 147.755 399.36 147.755C400.081 147.755 400.655 147.955 401.082 148.355C401.509 148.756 401.723 149.316 401.723 150.037ZM395.236 184.991C395.236 185.792 395.156 186.366 394.996 186.713C393.688 189.382 391.606 191.544 388.75 193.199C385.894 194.827 383.411 195.642 381.303 195.642C379.194 195.642 377.379 194.934 375.857 193.52C374.336 192.105 373.575 190.663 373.575 189.195C373.575 187.727 374.309 185.592 375.777 182.789C377.245 179.986 378.714 177.397 380.182 175.021C381.65 172.646 382.384 171.365 382.384 171.178C382.384 170.964 382.104 170.564 381.543 169.977C381.009 169.389 380.742 168.962 380.742 168.695C380.742 168.402 381.289 167.668 382.384 166.493C383.505 165.292 384.853 164.118 386.428 162.97C388.029 161.795 389.244 161.208 390.071 161.208C390.925 161.208 391.686 161.582 392.354 162.329C393.021 163.076 393.354 163.757 393.354 164.371C393.354 164.985 390.178 170.764 383.825 181.708C383.745 181.868 383.518 182.229 383.145 182.789C382.798 183.323 382.517 183.777 382.304 184.15C382.117 184.497 381.89 184.924 381.623 185.432C381.089 186.499 380.822 187.394 380.822 188.114C380.822 189.022 381.436 189.476 382.664 189.476C383.892 189.476 385.16 189.062 386.468 188.234C387.802 187.38 388.95 186.446 389.911 185.432C392.42 182.736 393.848 181.388 394.195 181.388C394.889 181.388 395.236 182.589 395.236 184.991ZM470.63 179.226L470.95 180.747C470.95 181.388 470.617 182.148 469.949 183.029C468.188 185.325 465.358 187.967 461.461 190.957C457.59 193.92 454.734 195.401 452.893 195.401C451.051 195.401 449.609 194.868 448.568 193.8C447.527 192.705 447.007 191.464 447.007 190.076C447.007 188.421 448.742 184.764 452.212 179.105C457.417 170.697 464.063 160.874 472.151 149.637C470.443 151.398 465.905 156.15 458.538 163.891C442.229 180.974 432.7 190.65 429.95 192.919C429.496 193.293 428.829 193.479 427.948 193.479C427.094 193.479 426.187 193.132 425.226 192.438C424.265 191.718 423.784 190.917 423.784 190.036V189.836C423.891 188.715 426.467 183.229 431.512 173.38C436.557 163.53 440.787 155.696 444.204 149.877C439.159 155.429 434.061 161.622 428.909 168.455C419.113 181.428 411.946 192.479 407.408 201.607C407.008 202.462 406.514 202.889 405.927 202.889C405.34 202.889 404.485 202.742 403.364 202.448C401.015 201.808 399.841 200.687 399.841 199.085C399.841 198.124 401.803 194.694 405.727 188.795C409.65 182.869 414.201 176.41 419.38 169.416C424.558 162.396 429.924 155.643 435.476 149.156C443.136 140.188 448.061 135.703 450.25 135.703C450.597 135.703 450.931 135.797 451.251 135.983C451.571 136.144 451.771 136.224 451.852 136.224C451.932 136.224 452.012 136.184 452.092 136.104C452.439 135.676 453.119 135.463 454.134 135.463C455.175 135.463 456.176 135.663 457.137 136.063C458.124 136.464 458.618 136.918 458.618 137.425C458.618 137.745 457.284 140.294 454.614 145.072C445.672 160.928 439.666 171.818 436.597 177.744C439.533 174.194 443.724 169.483 449.169 163.61C454.641 157.738 460.38 151.879 466.386 146.033C474.207 138.452 478.878 134.662 480.399 134.662C481.013 134.662 481.787 134.796 482.722 135.062C484.377 135.543 485.965 135.783 487.486 135.783C487.913 135.863 488.274 136.05 488.567 136.344C488.888 136.611 489.048 136.891 489.048 137.185C489.048 137.478 488.968 137.718 488.808 137.905C480.132 149.437 472.819 159.606 466.866 168.415C460.914 177.224 457.243 183.176 455.855 186.272C458.658 185.685 462.836 182.335 468.388 176.223C468.628 175.902 468.801 175.689 468.908 175.582C469.015 175.475 469.108 175.368 469.188 175.262C469.642 174.728 469.989 175.062 470.229 176.263C470.336 176.957 470.403 177.451 470.43 177.744C470.483 178.011 470.523 178.305 470.55 178.625C470.603 178.919 470.63 179.119 470.63 179.226ZM499.898 163.49C500.699 163.49 501.513 163.851 502.341 164.571C503.195 165.292 503.622 166.4 503.622 167.895C503.622 169.363 503.102 171.285 502.061 173.66C501.02 176.009 499.591 178.411 497.776 180.867C495.961 183.296 493.959 185.592 491.771 187.754C489.608 189.889 487.259 191.651 484.724 193.039C482.215 194.4 479.932 195.081 477.877 195.081C475.822 195.081 474.167 194.44 472.912 193.159C471.684 191.851 471.07 190.049 471.07 187.754C471.07 185.432 471.631 182.869 472.752 180.066C473.9 177.264 475.368 174.795 477.156 172.659C478.945 170.497 480.88 168.562 482.962 166.854C487.313 163.357 491.13 161.608 494.413 161.608C495.881 161.608 496.989 161.969 497.736 162.689C498.003 162.93 498.137 163.143 498.137 163.33V163.57C498.51 163.517 499.098 163.49 499.898 163.49ZM495.854 168.815H495.574C494.64 168.815 494.173 168.135 494.173 166.773C492.224 167.414 490.182 168.535 488.047 170.137C485.911 171.738 484.003 173.633 482.321 175.822C478.905 180.2 477.17 183.897 477.116 186.913C477.116 188.408 477.663 189.155 478.758 189.155C479.852 189.155 481.48 188.435 483.643 186.993C485.805 185.552 487.94 183.496 490.049 180.827C492.184 178.158 493.772 175.849 494.813 173.9C495.881 171.925 496.415 170.59 496.415 169.896C496.415 169.176 496.228 168.815 495.854 168.815ZM502.741 194.24L500.779 194.16H500.059C499.792 194.08 499.511 193.92 499.218 193.68C498.897 193.439 498.657 193.266 498.497 193.159C498.337 193.052 498.257 192.866 498.257 192.599C498.257 192.305 498.364 191.811 498.577 191.117C503.782 179.666 508.814 170.51 513.672 163.65C514.206 162.903 515.06 162.342 516.234 161.969C517.436 161.568 518.597 161.368 519.718 161.368C520.385 161.368 520.719 161.889 520.719 162.93C520.719 163.223 520.612 163.624 520.398 164.131C520.185 164.611 519.651 165.412 518.797 166.533C517.943 167.654 516.928 168.936 515.754 170.377C514.579 171.818 513.912 172.646 513.752 172.859C517.409 169.069 520.705 166.253 523.642 164.411C526.604 162.543 528.74 161.608 530.048 161.608C531.382 161.608 532.397 161.995 533.091 162.77C533.812 163.517 534.172 164.331 534.172 165.212C534.172 166.066 534.105 166.787 533.972 167.374C533.865 167.935 533.651 168.535 533.331 169.176C533.011 169.79 532.73 170.324 532.49 170.777C532.277 171.204 531.903 171.778 531.369 172.499C530.835 173.193 530.462 173.674 530.248 173.94C530.061 174.207 529.647 174.715 529.007 175.462C528.393 176.209 528.059 176.623 528.006 176.703C528.753 175.956 529.794 174.848 531.129 173.38C532.464 171.912 533.585 170.684 534.492 169.696C535.426 168.709 536.588 167.601 537.976 166.373C539.364 165.118 540.658 164.104 541.859 163.33C544.742 161.515 547.665 160.607 550.628 160.607C551.642 160.607 552.496 160.928 553.19 161.568C553.884 162.209 554.231 162.983 554.231 163.891C554.231 164.771 553.15 166.907 550.988 170.297C548.826 173.66 546.664 177.05 544.502 180.467C542.367 183.857 541.299 185.992 541.299 186.873C541.299 188.101 541.526 188.835 541.979 189.075C542.433 189.289 542.98 189.369 543.621 189.315C544.262 189.262 545.156 188.848 546.304 188.074C547.478 187.3 548.519 186.499 549.427 185.672C550.895 184.337 552.256 183.043 553.511 181.788C553.778 181.548 554.071 181.428 554.392 181.428C554.899 181.428 555.206 181.815 555.312 182.589C555.419 183.363 555.473 184.164 555.473 184.991C555.473 185.819 555.393 186.393 555.232 186.713C554.458 188.208 552.75 190.036 550.107 192.198C547.465 194.36 544.929 195.441 542.5 195.441C542.206 195.441 541.993 195.428 541.859 195.401C539.11 195.134 537.201 194.387 536.134 193.159C535.093 191.905 534.572 190.423 534.572 188.715C534.572 187.007 535.146 184.938 536.294 182.509C537.468 180.08 538.75 177.878 540.138 175.902C541.526 173.927 542.794 172.152 543.941 170.577C545.116 168.976 545.703 168.108 545.703 167.975C545.703 167.841 545.596 167.774 545.383 167.774C544.555 167.774 542.714 169.109 539.857 171.778C534.973 176.343 530.755 180.747 527.205 184.991C526.271 186.112 524.055 188.955 520.559 193.52C520.158 194.053 519.518 194.32 518.637 194.32C517.783 194.32 516.888 194.16 515.954 193.84C515.02 193.493 514.553 193.052 514.553 192.519C514.553 192.252 516.675 188.515 520.919 181.308C525.163 174.074 527.285 170.137 527.285 169.496C527.285 168.829 526.885 168.495 526.084 168.495C525.31 168.495 523.695 169.67 521.239 172.019C514.486 178.478 509.254 184.898 505.544 191.277C505.304 191.651 504.837 192.238 504.143 193.039C503.449 193.84 502.981 194.24 502.741 194.24ZM580.177 164.051C580.177 165.812 579.456 167.361 578.015 168.695C576.6 170.03 574.985 170.697 573.17 170.697C572.583 170.697 572.196 170.564 572.009 170.297C571.822 170.003 571.729 169.63 571.729 169.176C571.729 168.722 571.782 168.282 571.889 167.854C570.928 168.175 569.86 168.669 568.686 169.336C567.511 170.003 566.07 170.991 564.361 172.299C562.653 173.607 561.799 174.581 561.799 175.222C561.799 175.435 562.106 175.542 562.72 175.542C563.36 175.542 564.335 175.328 565.643 174.901C566.951 174.448 567.858 174.221 568.365 174.221C568.899 174.221 569.246 174.247 569.406 174.301C569.753 174.488 570.127 174.901 570.527 175.542C570.928 176.156 571.128 176.65 571.128 177.023C571.128 177.37 570.781 177.838 570.087 178.425C569.393 179.012 568.605 179.466 567.725 179.786C566.844 180.08 566.257 180.307 565.963 180.467C560.331 183.617 557.515 185.779 557.515 186.953C557.515 189.035 559.29 190.076 562.84 190.076C565.109 190.076 567.391 189.355 569.687 187.914C571.635 186.686 573.383 185.445 574.932 184.19C576.507 182.909 577.494 182.122 577.895 181.828C578.322 181.535 578.642 181.388 578.855 181.388C579.549 181.388 579.896 182.162 579.896 183.71C579.896 185.258 579.803 186.286 579.616 186.793C579.429 187.273 578.896 187.874 578.015 188.595C572.302 193.239 566.897 195.562 561.799 195.562C559.076 195.562 556.901 195.188 555.272 194.44C552.283 193.079 550.788 190.997 550.788 188.194C550.788 184.511 553.337 181.721 558.436 179.826C557.421 179.372 556.767 178.799 556.474 178.104C556.18 177.384 556.033 176.249 556.033 174.701C556.033 173.126 556.754 171.471 558.195 169.736C559.663 167.975 561.452 166.533 563.561 165.412C568.258 162.876 572.449 161.608 576.133 161.608C577.014 161.608 577.908 161.822 578.815 162.249C579.723 162.676 580.177 163.277 580.177 164.051ZM599.556 187.834C599.556 189.008 600.356 189.596 601.958 189.596C602.812 189.596 603.88 189.169 605.161 188.314C606.469 187.46 607.644 186.526 608.685 185.512C611.461 182.762 613.035 181.388 613.409 181.388C614.103 181.388 614.45 182.389 614.45 184.391C614.45 186.393 613.823 187.767 612.568 188.515C608.751 191.958 605.802 194.053 603.72 194.801C602.545 195.201 601.251 195.388 599.836 195.361C598.421 195.335 597.02 194.721 595.632 193.52C594.244 192.318 593.55 190.864 593.55 189.155C593.55 187.42 594.004 185.458 594.911 183.27C595.819 181.081 596.74 179.212 597.674 177.664C598.635 176.089 599.809 174.274 601.197 172.219C602.585 170.137 603.319 168.842 603.399 168.335L603.319 168.255C602.438 168.335 600.25 170.07 596.753 173.46C593.283 176.85 590.413 179.799 588.145 182.309C585.876 184.818 583.166 188.168 580.017 192.358C579.136 193.506 578.415 194.08 577.854 194.08C577.294 194.08 576.547 193.907 575.612 193.56C574.651 193.186 574.064 192.919 573.851 192.759C573.637 192.599 573.53 192.358 573.53 192.038C573.53 191.718 573.624 191.331 573.811 190.877C573.997 190.396 574.184 190.009 574.371 189.716C574.531 189.396 574.812 188.915 575.212 188.274C575.612 187.634 576.4 186.286 577.574 184.23C578.775 182.148 580.604 179.052 583.06 174.941C585.515 170.831 586.983 168.348 587.464 167.494C588.478 165.732 589.306 164.451 589.946 163.65C591.147 162.129 593.176 161.368 596.032 161.368C596.673 161.368 596.993 161.769 596.993 162.569C596.993 163.824 595.832 166.186 593.51 169.656L591.828 172.179C596.446 167.054 600.343 163.811 603.52 162.449C605.068 161.782 606.456 161.448 607.684 161.448C608.938 161.448 609.926 161.782 610.646 162.449C611.394 163.117 611.768 163.864 611.768 164.691C611.768 165.492 611.487 166.466 610.927 167.614C610.366 168.735 609.792 169.75 609.205 170.657C608.645 171.538 607.897 172.659 606.963 174.021C606.029 175.382 605.521 176.129 605.441 176.263C605.361 176.369 605.148 176.69 604.801 177.224C604.48 177.731 604.24 178.104 604.08 178.345C603.92 178.585 603.653 179.012 603.279 179.626C602.906 180.213 602.599 180.707 602.358 181.107C602.145 181.508 601.865 182.002 601.518 182.589C601.197 183.176 600.93 183.683 600.717 184.11C600.53 184.537 600.33 185.005 600.116 185.512C599.743 186.446 599.556 187.22 599.556 187.834ZM638.233 142.43L639.875 142.83C640.115 142.83 640.329 142.95 640.516 143.19C640.702 143.431 640.796 143.658 640.796 143.871C640.796 144.085 640.516 144.659 639.955 145.593C639.395 146.527 638.727 147.595 637.953 148.796C637.206 149.97 636.805 150.611 636.752 150.718C638.834 150.558 640.302 150.478 641.156 150.478C642.037 150.478 642.638 150.544 642.958 150.678C643.278 150.785 643.639 151.118 644.039 151.679C644.466 152.213 644.853 152.626 645.2 152.92C645.547 153.187 645.721 153.601 645.721 154.161C645.721 154.722 645.374 155.202 644.68 155.603C644.012 155.976 643.292 156.203 642.518 156.283C636.325 156.897 632.908 157.217 632.268 157.244C630.105 160.554 627.076 165.719 623.179 172.739C619.308 179.733 617.253 184.11 617.013 185.872C616.906 186.673 616.853 187.327 616.853 187.834C616.853 188.875 617.4 189.396 618.494 189.396C619.589 189.396 620.803 188.982 622.138 188.154C623.472 187.3 624.7 186.379 625.821 185.392C628.811 182.722 630.412 181.388 630.626 181.388C631.32 181.388 631.667 182.589 631.667 184.991C631.667 186.299 631.066 187.474 629.865 188.515C627.169 190.837 624.9 192.585 623.059 193.76C621.217 194.934 619.375 195.521 617.533 195.521C617.133 195.521 616.759 195.481 616.412 195.401C614.277 195.001 612.702 194.227 611.688 193.079C610.7 191.905 610.206 190.33 610.206 188.354C610.233 186.379 610.82 183.99 611.968 181.188C613.142 178.358 614.61 175.355 616.372 172.179C619.255 167 622.138 162.142 625.021 157.604L623.499 157.805C620.403 158.152 618.601 158.325 618.094 158.325H617.733C616.959 158.325 616.212 158.178 615.491 157.885C614.771 157.564 614.41 157.177 614.41 156.724C614.41 156.27 614.597 155.829 614.971 155.402C615.371 154.975 615.611 154.642 615.691 154.401C615.878 153.814 616.572 153.16 617.773 152.439C619.001 151.719 619.922 151.345 620.536 151.318C621.15 151.265 621.737 151.225 622.298 151.198C622.885 151.172 623.526 151.145 624.22 151.118C624.94 151.091 625.488 151.065 625.861 151.038L629.465 150.878C631.707 147.515 633.242 145.353 634.069 144.392C634.924 143.431 635.417 142.91 635.551 142.83C635.684 142.723 635.951 142.67 636.352 142.67L638.233 142.43Z" fill="#52D1DC"/>
</svg>
