<svg width="582" height="98" viewBox="0 0 582 98" fill="none" xmlns="http://www.w3.org/2000/svg">
<path d="M216.46 27.1909C219.884 25.0991 223.318 23.0826 226.484 21.1356C228.077 20.1543 229.591 19.1916 230.751 18.3688C231.337 17.9562 231.816 17.5698 231.875 17.5045C231.897 17.489 231.795 17.537 231.351 18.0666C231.1 18.3763 230.743 18.8416 230.318 19.6204C229.836 20.518 229.077 22.1825 228.91 24.5667C228.602 27.2439 229.99 30.8097 231.285 32.2333C232.573 33.7838 233.367 34.1446 233.707 34.365C234.067 34.5635 234.073 34.5424 233.942 34.5049C233.808 34.4624 233.529 34.3824 233.17 34.3011C231.714 33.9631 229.38 33.6871 227.016 33.5565C222.278 33.2921 216.733 33.4272 212.242 33.9088C202.186 35.1375 191.401 36.8748 181.339 38.5485C177.855 39.137 177.939 38.1709 176.934 38.2383C174.222 38.42 172.848 39.8309 170.906 40.1482C161.482 41.7013 152.774 43.5614 143.76 45.6514C134.522 47.8678 138.019 43.8637 134.632 44.1169C128.017 44.7082 134.422 46.7056 132.262 48.2813C131.464 48.5087 130.672 48.7363 129.886 48.9644C122.959 51.0039 115.957 52.5511 109.05 53.8752C110.841 53.0665 112.629 52.2513 114.44 51.4304C111.071 52.2436 106.165 52.8462 111.498 50.4787C110.198 50.5285 108.971 50.5053 107.646 50.5548C107.632 51.9988 101.761 53.5029 101.405 54.4178C101.049 55.3455 104.329 54.3942 104.326 54.4657C104.327 55.5641 90.4042 57.1927 89.424 57.2459C86.7812 57.4855 88.6921 55.331 86.5244 55.8931C82.7987 56.852 85.9982 59.7726 79.9871 56.2444C78.2616 58.1364 77.9369 57.4005 75.3573 57.8146C75.0186 57.8697 75.4527 58.6752 75.3094 58.7274C71.5799 60.1442 74.2246 57.9486 74.1856 57.8665C73.5375 56.4685 69.5309 57.9602 68.6318 57.9987C57.3796 58.5031 49.1298 58.9451 37.7852 61.7068C36.1255 62.1149 32.3227 63.5286 29.3624 64.6703C27.8623 65.2403 26.6425 65.6724 25.8313 65.8668C23.479 66.417 24.3323 64.9783 22.9538 64.9078C21.8895 68.0243 20.138 68.9365 15.2267 68.8154C14.222 71.1621 13.9243 69.6517 10.9614 71.0603C9.70839 71.6515 8.15195 72.8614 6.43511 73.8131C5.57201 74.29 4.69058 74.6959 3.76027 74.9294C3.30233 75.0436 2.81996 75.1191 2.31388 75.1339C1.78823 75.1268 1.34296 75.1813 0 74.9804C1.47391 74.9395 1.6736 74.744 2.09624 74.6508C2.45489 74.5411 2.74716 74.428 2.98827 74.3177C3.48188 74.093 3.84451 73.8548 4.19872 73.5943C4.91761 73.0689 5.63215 72.4452 7.4065 71.5563C8.5664 70.9932 21.2663 66.5837 19.6991 65.0706C18.8522 64.2965 14.9901 66.608 14.7398 66.4962C13.445 65.7943 15.3535 63.7305 17.5868 63.4534C17.1524 63.8348 16.5903 64.2635 16.1012 64.6634C21.2252 64.3296 16.2939 60.5247 21.3526 63.5888C21.9646 63.9674 21.984 64.5765 22.8999 64.8867C22.9677 64.6036 21.8853 64.3353 22.6108 63.9686C23.3776 63.5867 25.1985 64.1766 25.1108 63.1772C24.9743 61.7272 21.9305 63.3734 21.6703 63.3757C21.6706 63.3846 21.6708 63.3936 21.6711 63.4025C19.3018 63.4284 23.7526 61.7957 23.8962 61.6035C24.9792 60.2943 23.8718 59.9606 25.662 58.5676C25.9621 58.337 26.4359 58.1036 26.9968 57.8715C28.3728 57.2982 30.2406 56.7914 31.0274 56.444C32.1366 55.95 30.1436 55.8775 30.8755 55.4954C31.614 55.1112 32.7268 55.3004 33.5883 54.8693C33.9576 54.6825 33.7259 53.9729 33.9088 53.8915C35.8711 53.0187 34.9596 54.8984 36.7712 54.2841C37.9428 53.8795 41.5815 51.4154 38.6962 51.7398C39.9986 51.233 41.2614 50.7902 42.5683 50.3378C41.6714 50.3359 40.7687 50.4131 39.8872 50.3753C42.4709 50.0656 43.2984 48.5482 44.852 48.0694C46.4091 47.5927 48.1676 48.7516 49.7176 47.6275C53.0484 45.2258 44.0789 48.0535 42.8684 48.0964C42.3976 48.0985 43.8089 46.5094 44.0678 46.4121C45.2126 45.9765 46.7789 46.4861 47.6725 46.2374C50.8476 45.3485 52.5711 43.8056 55.5754 42.9202C65.8255 39.9085 78.4198 36.8522 87.8702 34.5748C91.3911 33.7313 93.7786 34.5029 95.3489 34.1126C99.0156 33.1918 99.2086 32.0044 102.366 31.1808C107.062 29.9571 113.839 29.1245 117.703 28.1513C119.675 27.6642 121.299 26.5555 122.262 25.9097C122.652 25.6641 122.955 25.4819 123.151 25.4107C133.554 21.5835 146.342 18.373 155.043 16.3981C159.141 15.4624 161.342 16.2366 162.172 16.0209C165.778 15.104 164.59 14.2997 167.56 13.7977C169.157 13.5308 169.662 14.4424 169.88 14.4382C171.81 14.3877 171.944 13.0439 173.401 12.7187C181.787 10.8557 190.08 10.2832 198.496 9.13555C199.123 9.05103 199.15 9.62684 199.542 9.5387C201.171 9.15578 200.336 8.365 202.063 8.0499C204.326 7.64106 206.68 7.33786 209.182 7.10507C210.966 6.93913 212.643 6.85951 214.333 6.80398C214.755 6.79128 215.01 7.51295 215.965 7.46878C216.946 7.42587 217.65 6.69763 219.18 6.70367C223.189 6.73293 227.084 7.62856 231.527 8.09021C232.271 8.16881 233.295 7.3839 234.468 7.5542C238.236 8.46928 243.416 8.62313 250.633 15.3707C252.773 17.4843 254.941 22.2859 254.507 26.2916C254.345 28.5774 253.665 30.306 253.009 31.5848C252.491 32.5833 251.971 33.3331 251.471 33.9801C250.468 35.2434 249.888 35.7828 249.147 36.4814C248.562 37.0214 247.996 37.498 247.426 37.9542C246.923 38.3574 246.447 38.7214 245.951 39.0887C244.097 40.4575 242.389 41.588 240.816 42.6229C237.608 44.7178 234.609 46.5831 231.611 48.3897C230.053 49.3241 228.268 49.4517 227.477 49.9184C225.689 50.9806 227.421 50.8128 225.657 51.9284C219.965 55.5487 214.457 59.3953 210.838 63.1647C209.044 64.9859 207.95 66.86 207.843 67.344C207.767 67.6017 207.804 67.4215 207.762 67.3193C207.732 67.212 207.703 67.3275 208.008 67.7885C209.512 70.0448 211.035 71.4366 211.65 71.7056C211.978 71.8664 212.146 71.8777 212.684 71.8728C213.21 71.8623 214.16 71.7562 215.426 71.4785C217.956 70.9367 221.479 69.7903 224.721 68.9678C227.474 68.2671 228.288 69.1441 230.306 68.5738C233.911 67.5623 234.197 66.0421 238.12 64.8924C241.263 63.9833 245.266 64.4876 248.573 63.7679C250.052 63.4455 251.109 62.9728 252.223 62.4632C253.547 61.8333 254.85 61.1511 256.845 60.7321C259.848 60.1048 264.143 60.0339 267.399 59.4344C297.706 53.9457 325.451 50.3597 353.905 42.8309C364.033 40.3221 375.057 36.616 385.829 34.3937C386.824 34.191 385.755 35.9122 388.76 34.6153C390.384 33.9119 392.41 32.0539 396.211 30.6862C399.963 29.3385 403.444 28.1405 407.321 26.8388C427.41 20.19 448.626 14.1526 470.157 9.29308C508.796 0.966554 547.982 -5.63729 580.354 7.26251C581.987 7.92218 581.099 11.1549 580.124 12.0733C579.22 11.4169 578.391 10.6374 577.461 9.89613C576.296 13.9355 576.486 12.8834 572.23 12.5219C569.511 12.2977 571.681 14.0244 570.239 14.5153C568.375 15.1484 559.783 17.1543 561.424 14.4776C560.886 14.9422 560.393 15.3874 559.875 15.8423C553.687 16.2594 547.527 16.9521 541.498 17.7731C540.429 17.917 540.388 18.7568 539.3 18.9017C536.444 19.2972 534.028 18.7767 531.08 18.9114C529.513 18.9846 529.215 19.9592 527.092 19.9415C524.961 19.9265 525.031 18.6125 522.11 20.1151C524.041 21.6998 515.586 20.7551 512.628 21.0094C512.159 21.0412 508.771 22.683 506.845 22.6326C504.979 22.5764 502.025 21.8268 499.209 22.6013C497.859 22.9679 497.146 24.186 495.724 24.3895C494.714 24.534 493.368 23.6458 492.086 23.7474C490.806 23.8434 488.113 25.0287 487.627 25.1118C485.81 25.4146 487.731 24.4274 486.471 24.564C480.41 25.2256 473.382 26.1635 467.617 28.0371C466.912 28.2642 468.1 28.8524 468.013 28.9024C463.406 31.0805 465.733 29.3897 464.228 28.9798C462.793 28.5365 453.469 31.5509 453.868 33.0022C453.071 31.3146 451.364 33.2917 450.849 33.5064C448.843 34.3359 448.783 32.6868 446.872 33.7989C446.167 34.208 447.965 34.7738 447.141 34.9986C445.165 35.5366 442.817 34.4688 440.14 35.1616C439.495 35.3284 439.533 36.1268 438.385 36.4783C437.19 36.841 432.205 37.5238 434.897 38.3336C431.592 38.0731 431.228 38.9518 427.874 40.0661C427.021 40.3479 425.462 39.5711 423.828 40.5465C423.264 40.881 423.677 42.0051 422.758 42.3357C420.616 43.1095 418.276 42.6155 415.564 43.5184C414.873 43.7479 414.176 43.9989 413.472 44.266C408.965 45.974 404.62 48.1384 399.964 49.4492C398.517 49.854 398.533 48.5773 396.382 49.2842C396.065 49.3921 393.862 51.2372 392.418 51.6174C391.618 51.8269 386.722 52.6815 385.85 52.9029C384.34 53.2991 384.445 54.4891 383.521 54.5505C380.893 54.7126 382.296 52.4584 380.142 55.6156C378.809 54.6786 377.196 55.3286 376.144 53.9827C375.677 55.9701 373.884 54.7692 372.194 55.909C370.482 57.0563 369.847 60.8001 368.335 57.4397C367.599 58.1313 363.977 60.0055 363.346 60.2454C361.502 60.9496 362.225 59.6847 360.856 60.2248C360.618 60.3171 361.068 60.9087 359.4 61.3166C358.311 61.5991 350.485 63.7099 349.975 63.7294C344.306 64.1005 352.724 62.3013 353.662 61.2485C353.92 61.3816 354.176 61.5155 354.448 61.6417C356.923 61.2932 355.153 60.1649 353.968 60.1165C352.786 60.0682 350.996 61.2743 349.992 61.0105C349.469 60.8829 349.29 58.9947 350.647 58.8635C349.097 58.6833 350.85 57.5809 350.156 57.2066C349.407 56.8065 342.984 58.2855 343.173 59.2894C344.411 59.0155 345.846 58.6105 347.07 58.3337C349.127 59.6453 345.802 66.8692 340.729 65.5682C337.046 64.6187 342.099 62.0078 334.752 65.222C335.953 65.0258 337.009 64.9548 338.08 64.7815C338.497 66.0657 336.445 65.0255 335.62 65.65C335.226 65.9546 338.14 66.2667 335.864 67.1103C333.448 65.6827 332.321 67.9182 328.979 68.633C329.834 68.107 330.694 67.5777 331.56 67.0417C325.614 66.8757 338.639 63.6491 327.514 65.1946C328.831 64.8632 330.113 64.6114 331.433 64.2303C330.64 63.6791 331.233 61.4327 330.567 61.1284C328.825 60.3289 326.787 61.4596 324.935 61.7225C324.133 61.8376 324.518 61.1916 324.45 61.2016C323.354 61.3535 323.758 62.1098 322.8 62.3475C321.595 62.6499 317.974 62.5004 317.42 62.6865C315.996 63.1733 318.718 64.3355 318.601 64.4778C317.797 65.4194 315.775 65.11 316.046 66.1026C320.544 64.6641 334.014 62.8759 322.283 66.9074C325.943 67.8912 325.409 70.3402 320.596 71.4065C316.604 72.2714 319.036 70.9098 316.785 70.2814C316.488 70.2128 311.069 70.6199 310.906 71.3586C310.861 69.7077 308.902 68.5487 309.8 66.696C309.932 66.425 312.121 66.1718 311.146 64.9526C310.658 64.3404 309.341 63.046 309.38 62.16C309.031 62.8272 308.671 63.5719 308.315 64.2654C305.103 64.9429 304.525 64.3663 302.594 63.5151C302.743 63.9684 304.678 65.68 302.093 65.4549C301.958 65.4382 301.747 64.7531 300.418 64.5912C297.769 64.263 297.195 64.1225 298.863 61.7776C293.712 63.7199 292.264 61.573 286.876 63.0221C288.312 65.5226 290.165 64.5935 295.096 63.3724C295.402 63.9723 295.591 64.582 295.904 65.1874C289.02 64.7063 292.387 64.3763 288.761 66.1953C287.897 66.6365 282.896 67.0061 284.806 68.5553C285.27 68.9171 288.311 68.4363 288.051 69.1488C288.022 69.2812 284.31 70.1359 283.973 70.0103C279.58 68.4905 286.717 65.944 275.467 68.3759C275.156 68.4453 275.144 69.2351 274.567 69.4308C273.468 69.7997 273.319 68.909 272.325 69.2697C271.329 69.6315 270.057 71.0537 268.38 70.177C265.242 68.5941 271.756 66.3931 274.835 67.0375C275.693 64.1875 254.758 67.3846 253.15 67.9395C253.137 67.9434 253.126 67.947 253.116 67.9505C250.089 69.0064 251.307 68.8827 253.265 68.6206C255.045 68.388 257.352 68.0598 257.639 68.3729C257.907 68.6471 258.388 72.5933 260.426 69.6487C261.034 68.7753 257.82 68.2788 259.575 67.5656C261.322 66.855 260.787 68.1279 260.932 68.1869C261.429 68.3896 263.246 67.6592 263.511 67.7856C267.702 69.6742 267.881 73.4927 262.056 68.7293C260.081 70.3334 265.387 71.5335 262.829 72.8165C259.657 74.3871 257.046 72.987 256.598 72.9784C252.872 72.896 255.061 73.7282 254.221 74.271C253.898 74.482 253.111 74.6469 251.412 74.7251C247.942 74.9109 256.14 72.0194 248.451 73.6897C242.055 75.217 245.724 75.3806 245.724 77.5151C245.709 78.0216 242.414 79.3903 247.047 78.1155C247.061 77.554 247.158 76.797 247.354 76.2402C248.639 76.367 251.054 78.6688 251.695 78.646C253.604 78.5758 254.168 78.0207 254.843 77.9468C255.249 77.9029 255.689 78.0269 256.461 78.5218C254.859 76.94 257.161 77.6684 257.872 77.16C260.55 75.2802 256.578 75.3889 263.47 76.1217C262.486 75.4128 261.575 74.7093 260.596 74.0051C261.392 73.8456 262.18 73.6878 262.958 73.5331C264.413 75.2067 268.522 74.3153 265.064 76.7828C269.717 76.5913 271.404 75.9256 272.224 74.3166C272.372 74.0109 273.045 73.7958 273.838 73.6493C273.626 73.2643 273.242 72.0339 273.345 71.8604C274.265 70.3322 276.355 72.4215 275.892 73.4062C276.471 73.364 276.927 73.348 277.088 73.3465C278.111 73.3377 276.265 74.4384 277.119 74.5961C277.41 74.6446 280.166 74.0607 280.259 74.3844C280.925 76.4476 276.06 75.5882 285.504 75.4833C285.445 73.5277 281.239 74.5638 282.039 72.3634C282.917 69.9959 285.732 72.5987 285.897 69.8274C286.158 70.2421 286.298 70.599 286.539 71.0791C290.087 69.3784 290.505 71.609 291.708 71.9439C294.064 72.6011 304.301 70.9896 294.822 70.359C296.143 69.9739 297.487 69.6908 298.814 69.3252C299.706 73.2974 298.63 71.8344 305.2 71.4879C306.647 71.4091 307.389 73.1036 308.462 70.7907C308.586 72.8813 312.628 70.9694 313.06 71.15C315.872 72.3654 306.776 76.1341 305.028 72.6542C303.659 74.3066 303.389 72.4321 301.648 72.9401C299.179 73.665 298.826 74.088 295.64 73.1291C292.94 75.5085 307.408 72.3132 298.91 76.1777C293.83 78.4944 273.949 82.2943 256.223 86.0963C244.842 88.514 234.589 92.2714 229.456 93.8373C223.079 95.6721 215.987 98.4412 205.974 96.2975C195.852 93.7721 190.434 87.0043 186.975 82.27C183.314 77.4843 180.834 68.7257 182.779 61.4861C184.538 54.3125 188.283 49.5045 191.999 45.4946C193.772 42.8854 207.166 32.5914 205.672 36.6252C205.432 37.1539 200.388 42.0303 206.222 39.9C204.622 39.7567 207.05 37.1532 207.226 36.9096C211.276 31.1295 207.836 32.5611 216.46 27.1909ZM242.575 15.969C244.207 16.794 245.925 17.8776 247.348 19.7811C248.81 21.674 249.333 24.2895 249.192 25.9334C249.078 27.5811 248.57 28.632 248.254 29.2873C247.975 29.8496 247.735 30.2377 247.547 30.5495C247.358 30.8593 247.217 31.0873 247.121 31.2679C247.05 31.417 247.017 31.5268 247.013 31.611C247.006 31.7782 247.122 31.8402 247.325 31.8354C247.427 31.8327 247.55 31.8128 247.69 31.7785C247.845 31.7267 248.03 31.6439 248.226 31.549C249.644 31.2688 252.848 26.9091 251.668 32.2887C252.223 31.4157 253.503 29.2444 253.705 26.2375C253.993 23.1698 252.82 19.4993 251.181 17.3205C249.541 15.0615 247.97 13.9533 246.608 13.0764C247.413 13.8353 248.221 14.6826 249.084 15.8338C249.089 15.838 249.093 15.8423 249.097 15.8465C246.267 14.8939 244.263 15.3841 242.575 15.969ZM35.9521 50.2237C36.3266 49.6489 36.6952 49.0766 37.1127 48.5039C38.8298 48.1811 40.5263 47.8805 42.2411 47.5931C42.1154 47.9414 41.9983 48.2914 41.8743 48.6397C39.8993 49.1283 37.9277 49.6366 35.9521 50.2237ZM276.535 66.2831C279.061 67.1832 278.495 64.9974 281.781 65.5563C281.165 63.972 280.508 62.4301 279.867 60.8663C277.481 61.4597 277.12 62.1483 274.428 62.1376C274.812 62.6186 275.202 63.102 275.577 63.588C275.993 63.411 276.433 63.2151 276.833 63.0542C277.718 64.4286 273.605 65.2602 276.528 66.2877C276.53 66.2862 276.533 66.2847 276.535 66.2831ZM300.361 62.1989C301.655 62.2322 306.707 62.2917 307.271 61.5051C309.195 58.8696 295.531 62.4152 305.455 58.8333C305.359 58.5179 305.357 58.1948 305.308 57.8755C303.422 58.0483 301.57 58.224 299.656 58.4107C299.943 59.6691 300.059 60.9361 300.361 62.1989ZM213.546 53.685C211.785 54.6112 206.691 60.9507 209.632 60.191C210.382 60.0048 211.635 56.0623 212.889 55.2186C213.653 54.6915 213.538 56.2394 214.731 54.784C214.357 54.4286 213.974 54.0107 213.544 53.6908C213.545 53.6889 213.545 53.6869 213.546 53.685ZM212.403 46.1758C210.872 47.5188 209.396 48.9542 207.977 50.3929C209.924 50.4854 211.709 48.0961 212.942 49.4969C212.588 49.9303 212.254 50.3536 211.907 50.7931C211.333 50.7203 210.763 50.6476 210.193 50.5794C209.506 52.4169 210.57 52.1535 208.05 53.9173C211.318 54.8318 212.271 55.8463 214.857 50.4428C214.954 52.2547 218.535 55.7302 218.887 51.2005C218.968 50.3474 216.837 51.2812 216.76 51.2138C215.721 50.3549 216.296 48.9407 215.282 48.1516C214.82 47.7939 213.658 48.6268 213.03 48.1318C212.725 47.8861 213.235 46.2055 212.403 46.1758ZM219.373 49.3779C219.321 50.3598 222.025 50.7936 223.31 49.5267C225.335 47.5446 220.673 48.3885 219.373 49.3779ZM35.9415 50.2284C35.945 50.2268 35.9486 50.2253 35.9521 50.2237C35.9507 50.2258 35.9493 50.228 35.9479 50.2302C35.9458 50.2296 35.9437 50.229 35.9415 50.2284ZM293.788 62.2223C295.167 61.3511 297.36 61.1355 297.051 60.1049C297.799 60.2087 298.55 60.3081 299.29 60.4119C299.238 60.0964 299.178 59.7811 299.126 59.4687C296.956 59.5824 294.778 59.6906 292.583 59.797C292.976 60.6056 293.348 61.4203 293.788 62.2223ZM317.24 59.3391C319.934 58.9645 317.434 57.9434 317.897 57.15C318.366 56.3573 320.805 56.4811 320.348 55.5456C318.793 55.7986 317.157 56.0555 315.574 56.296C316.178 57.2978 316.663 58.3404 317.246 59.3382C317.244 59.3385 317.242 59.3388 317.24 59.3391ZM187.584 15.7065C189.506 15.699 188.924 16.9107 192.381 15.0314C192.378 15.0319 192.375 15.0323 192.373 15.0328C188.714 14.7111 184.079 14.6913 180.373 16.2597C182.935 16.9774 184.578 15.7248 187.584 15.7065ZM269.547 64.0357C268.889 65.0209 272.695 65.1813 273.349 64.263C274.443 62.7683 270.588 62.5302 269.547 64.0357ZM115.768 41.274C113.724 44.6235 119.807 46.1492 124.933 43.1569C125.368 42.9056 121.586 43.1778 122.479 42.3518C122.57 42.2717 124.517 41.7346 124.883 41.2222C125.245 40.7123 124.481 40.0416 125.144 39.4442C125.466 39.1544 125.96 38.9547 126.522 38.7911C127.969 38.3685 129.919 38.2241 130.46 37.4208C130.562 37.2695 128.314 36.7558 128.177 36.7553C127.352 36.7384 126.639 37.0274 126.061 37.3978C125.119 38.0019 124.504 38.8158 124.319 38.8817C122.778 39.426 122.66 38.2066 122.185 38.061C121.295 37.7853 120.149 38.683 120.045 38.6727C117.399 38.3724 122.842 37.0507 123.425 36.3938C124.533 35.1782 123.811 34.594 124.81 33.6155C125.248 33.1973 126.003 32.7039 127.368 32.0657C127.797 31.8626 133.285 30.2177 125.997 31.1086C134.066 26.7488 128.993 28.0953 123.656 30.1264C120.809 31.2384 117.808 32.4488 117.105 32.889C116.217 33.4466 118.006 34.1081 117.562 34.7729C116.544 36.298 114.267 37.1502 114.918 38.6831C116.305 41.9064 118.786 38.8384 121.063 38.7508C121.06 39.5403 121.189 40.2705 120.984 41.1029C121.333 39.9733 115.913 41.0382 115.767 41.2674C115.767 41.2696 115.768 41.2718 115.768 41.274ZM148.435 27.6501C151.725 27.9202 151.002 25.8402 154.084 26.4012C156.109 23.9049 151.262 25.1748 150.666 25.2112C147.958 25.3585 147.497 23.2658 144.994 24.5782C146.221 25.5734 147.275 26.6289 148.435 27.6501ZM121.97 34.3539C123.571 32.6834 120.118 33.7933 119.915 33.6264C117.747 31.9713 128.131 29.0963 121.97 34.3539ZM202.363 58.0547C201.692 58.7588 202.894 58.9582 202.635 59.8041C202.355 60.6066 200.192 62.441 200.841 62.715C201.459 62.831 205.198 60.134 203.304 63.9497C203.697 64.0035 203.92 64.1753 204.246 64.2794C204.728 63.4031 205.41 62.4403 206.217 61.4714C204.951 61.3264 203.613 61.2294 202.364 61.2285C202.087 60.1187 203.253 60.4022 203.271 60.3765C203.27 60.3758 203.269 60.3751 203.268 60.3744C204.047 59.1967 203.931 56.4979 202.363 58.0547ZM214.341 14.0713C214.173 16.7446 216.59 13.6288 217.672 13.2713C218.744 12.9041 220.241 13.8682 219.666 12.7318C217.893 11.9555 214.335 13.7636 214.342 14.0748C214.342 14.0736 214.342 14.0725 214.341 14.0713ZM165.029 23.8493C167.455 22.6803 166.928 22.0802 170.221 22.2183C169.97 21.6124 169.718 20.9926 169.471 20.3959C166.972 20.8909 167.512 22.6849 164.472 22.5573C163.972 22.5371 164.676 20.8601 162.633 21.7876C163.419 22.4332 164.241 23.1617 165.029 23.8493ZM177.336 18.9608C174.368 19.6238 173.033 25.1816 178.027 21.8393C178.764 21.3436 179.545 18.4705 177.336 18.9608ZM223.441 41.5556C219.076 44.0818 224.386 41.7712 225.928 41.786C216.307 48.4704 226.92 40.8835 229.327 42.5918C230.154 41.2145 231.627 38.3233 228.787 39.4728C227.615 39.9475 228.417 40.3924 228.35 40.4286C226.279 41.4411 225.85 40.1805 223.441 41.5556ZM143.182 29.1221C143.36 29.035 142.838 28.2425 143.391 27.9122C143.947 27.5819 145.458 27.8433 145.457 27.275C145.455 26.7007 142.617 26.9876 141.885 27.6031C141.156 28.2198 141.577 29.9031 143.182 29.1221ZM162.809 26.7253C165.167 25.5548 160.382 23.1994 159.831 23.3408C155.085 24.5747 162.735 25.6593 162.809 26.7253ZM230.674 30.6615C226.303 35.2276 231.596 35.5002 235.852 34.9522C236.112 34.3744 236.346 33.8101 236.598 33.2358C235.791 36.258 233.293 40.4134 240.223 33.7642C235.606 36.1591 238.944 33.3095 238.858 33.216C237.188 29.619 231.95 35.0148 230.678 30.6586C230.677 30.6596 230.675 30.6605 230.674 30.6615ZM134.86 30.4284C132.24 31.1713 125.74 33.9393 129.381 34.6103C131.186 33.1972 133.008 31.8054 134.86 30.4284ZM236.41 81.9357C238.732 82.3136 240.661 81.7718 243.176 81.0804C240.531 80.2591 241.987 79.7209 242.692 79.1825C243.759 78.3705 240.881 79.1315 240.86 79.0422C240.566 77.7098 242.363 77.0075 238.166 78.1505C239.053 77.4181 240.011 76.6707 240.917 75.9535C237.662 76.7221 236.677 76.0808 234.335 75.6008C237.053 77.6092 233.968 76.7303 231.983 78.6891C231.002 79.6643 235.21 81.742 236.418 81.9334C236.415 81.9342 236.413 81.9349 236.41 81.9357ZM224.953 33.45C224.661 34.1833 224.499 35.0365 224.253 35.8241C223.701 36.216 223.15 36.6016 222.609 36.9911C222.318 36.6709 222.029 36.3272 221.734 36.0286C220.913 36.3837 221.515 36.7093 221.319 36.894C221.317 36.892 221.316 36.8901 221.315 36.8881C218.504 39.5313 217.171 40.2749 213.95 40.8298C214.671 41.9127 215.391 42.9956 216.111 44.0785C216.59 43.6113 217.078 43.1462 217.566 42.6859C217.48 41.9088 217.399 41.1292 217.321 40.3499C218.178 40.2589 219.02 40.1793 219.878 40.0977C220.266 39.5585 220.752 38.9461 221.074 38.4611C225.573 39.9589 218.385 41.4923 219.159 42.8158C219.631 43.6372 225.483 39.9694 226.014 38.8928C226.086 38.7357 223.405 37.186 226.313 37.0886C226.759 37.0808 229.901 42.0239 229.81 36.5614C229.793 35.7891 226.799 33.3356 224.953 33.45ZM202.288 46.6069C205.105 46.6866 202.895 48.4106 200.987 50.0509C199.028 51.7458 197.421 53.2101 200.828 51.8662C200.745 54.4232 201.022 54.0875 203.36 53.8977C203.562 53.8854 203.038 55.0877 203.159 55.0542C204.897 54.4561 206.038 52.8395 207.076 53.9681C207.347 53.6164 207.609 53.2905 207.881 52.9495C205.568 53.0453 207.1 50.4175 207.297 48.7161C207.37 47.9497 206.298 48.5951 206.349 47.9334C206.369 47.6837 207.946 46.8895 207.699 46.4469C207.117 45.4564 205.31 44.8751 203.248 45.4821C203.247 45.4812 203.246 45.4803 203.246 45.4795C202.914 45.8516 202.607 46.2289 202.288 46.6069ZM206.891 23.3115C205.937 21.3544 203.201 21.1203 208.17 19.4335C207.876 19.0602 207.564 18.6931 207.249 18.3233C206.395 18.4727 205.522 18.6283 204.694 18.7773C202.943 25.1778 197.194 19.0953 200.878 22.9123C201.297 23.3244 203.2 22.5114 201.42 24.0667C201.423 24.0674 201.426 24.0681 201.429 24.0688C204.146 23.2703 204.404 22.4932 206.891 23.3115ZM225.307 20.8618C232.04 16.6887 216.259 18.297 218.939 19.5638C219.162 19.6142 225.892 18.7297 225.307 20.8618ZM174.576 31.1355C177.442 30.6502 177.178 28.3131 176.735 27.535C176.292 26.7544 174.463 27.9838 174.183 27.9035C173.271 27.6334 174.971 27.0026 173.779 26.621C173.392 26.4914 168.233 26.6779 168.019 26.8313C166.862 27.6454 169.113 29.1597 168.794 29.4527C167.761 30.4087 165.966 29.7565 165.834 30.8393C165.558 33.1467 168.05 30.2587 168.545 30.1203C170.049 29.7029 170.164 30.9447 171.343 30.9585C172.522 30.9727 173.192 30.4063 174.204 30.2961C174.54 30.2596 174.431 31.156 174.576 31.1355ZM183.108 24.4735C180.425 26.7653 188.082 27.3539 188.843 26.8114C191.195 25.15 184.411 23.3662 183.108 24.4735ZM213.785 44.9434C215.385 42.2756 209.341 45.1554 208.157 46.7867C208.78 46.9553 213.243 45.8295 213.785 44.9434ZM232.108 29.8001C230.148 31.4558 234.542 32.2151 236.34 31.0051C236.325 28.7387 235.599 29.6708 234.354 30.3557C233.16 31.0034 233.628 28.4983 232.108 29.8001ZM143.467 36.0703C143.987 35.9393 152.211 32.2291 147.099 32.8458C146.705 32.8825 140.749 34.7434 140.378 35.1648C139.623 35.9897 142.08 36.3501 143.467 36.0703ZM236.504 25.9083C236.718 25.5637 236.94 25.3003 237.148 25.1218C237.473 24.2439 237.897 23.9394 238.142 23.8634C238.382 23.8195 238.546 23.9022 238.707 24.0106C239.021 24.2417 239.388 24.5422 240.116 24.9081C240.116 24.908 240.116 24.9079 240.116 24.9078C240.18 24.9592 240.002 25.2017 239.841 25.2943C239.662 25.4113 239.419 25.4991 239.164 25.536C238.701 25.5679 238.179 25.4272 237.709 25.222C236.764 24.8123 236.078 24.109 235.849 24.3306C234.175 25.8803 237.581 26.9447 236.859 28.5669C239.275 25.7636 239.65 28.0103 241.574 26.1639C241.64 26.0848 241.701 25.9359 241.71 25.7833C241.731 25.6171 241.682 25.4206 241.56 25.4192C241.19 24.7813 240.383 24.9198 240.014 25.1477C239.702 25.3266 239.281 25.9339 238.608 26.2444C237.95 26.5884 236.99 26.3581 236.504 25.9083ZM131.59 39.9111C134.615 39.6383 136.478 36.3023 132.377 37.086C130.359 37.4826 129.75 40.0841 131.59 39.9111ZM306.041 70.8862C305.477 70.2613 304.903 69.6404 304.314 69.025C305.381 68.6942 306.471 68.3539 307.54 68.014C306.706 68.3673 305.866 68.7162 305.017 69.065C307.128 68.9947 308.27 70.1107 306.046 70.8853C306.044 70.8856 306.043 70.8859 306.041 70.8862ZM378.899 53.8624C379.982 54.2262 381.104 51.6637 380.83 51.5804C378.768 50.9687 377.399 53.3575 378.899 53.8624ZM206.625 42.2483C203.475 44.2761 207.618 45.3686 209.487 44.2939C208.01 44.5694 208.401 41.1451 206.625 42.2483ZM353.662 61.2485C353.279 61.0503 352.895 60.852 352.479 60.6616C353.654 60.7628 353.919 60.9726 353.662 61.2485ZM145.59 38.6178C146.161 38.7326 149.945 37.9876 150.375 37.5525C151.265 36.6308 147.875 35.5359 146.296 36.5457C146.119 36.6549 145.021 38.497 145.598 38.6158C145.596 38.6165 145.593 38.6172 145.59 38.6178ZM310.912 71.4511C310.901 71.4199 310.899 71.3887 310.906 71.3586C310.907 71.3893 310.913 71.4201 310.912 71.4511ZM453.94 33.1431C453.906 33.0983 453.88 33.0511 453.868 33.0022C453.89 33.0473 453.92 33.0926 453.94 33.1431ZM172.739 35.3473C174.651 38.2688 177.182 36.0139 174.596 34.8889C174.453 34.8309 173.049 35.2907 172.739 35.3473Z" fill="#F8830E"/>
</svg>
